# xmcd CD database file
#
# Track frame offsets:
#	150
#	24698
#	29701
#	51981
#	67706
#	98015
#	122321
#	136497
#	162862
#	186561
#	195223
#
# Disc length: 3035 seconds
#
# Revision: 1
# Processed by: cddbd v1.4PL0 Copyright (c) Steve Scherf et al.
# Submitted via: CDex 1.51
#
DISCID=900bd90b
DTITLE=Scott Hill - steps
DYEAR=1999
DGENRE=Jazz
TTITLE0=Needs a bridge
TTITLE1=Trio Transportation
TTITLE2=Take it as it is
TTITLE3=The Noodler
TTITLE4=Delossoled
TTITLE5=Steps
TTITLE6=Grumpy Asthmatic
TTITLE7=Bar Talk
TTITLE8=Silk Road
TTITLE9=Saz Intro
TTITLE10=Saz
EXTD=YEAR: 1999
EXTT0=
EXTT1=
EXTT2=
EXTT3=
EXTT4=
EXTT5=
EXTT6=
EXTT7=
EXTT8=
EXTT9=
EXTT10=
PLAYORDER=
